<!--?xml version="1.0" standalone="no"?-->

<svg version="1.0" xmlns="http://www.w3.org/2000/svg" width="281.000000pt" height="300.000000pt" viewBox="0 0 281.000000 300.000000" preserveAspectRatio="xMidYMid meet">
<g transform="translate(0.000000,300.000000) scale(0.100000,-0.100000)" fill="#282423" stroke="none">
<path class="node" id="node1" d="M1051 2785 c-39 -103 -34 -214 11 -278 23 -32 106 -77 143 -77 14 0
25 -4 25 -9 0 -5 -18 -35 -40 -68 -54 -81 -94 -189 -114 -308 -11 -58 -28
-120 -43 -149 -18 -33 -27 -71 -31 -116 -8 -116 51 -215 171 -286 212 -124
521 -45 612 158 24 53 27 70 23 128 -4 46 -13 82 -31 116 -16 29 -33 87 -42
143 -23 136 -65 249 -124 334 -31 46 -31 57 1 57 31 0 115 48 135 77 51 75 56
143 18 255 -14 40 -25 74 -25 76 0 1 -3 2 -8 2 -4 0 -6 -25 -5 -56 3 -107 -41
-205 -114 -255 l-44 -31 -27 29 c-14 15 -27 34 -28 42 -5 27 -30 39 -100 45
l-71 7 -42 -37 c-26 -24 -41 -46 -41 -61 0 -12 -3 -23 -7 -23 -24 1 -91 51
-115 85 -35 51 -49 100 -51 186 -1 38 -5 69 -9 69 -4 0 -16 -25 -27 -55z m268
-521 c25 -31 27 -64 6 -103 -36 -71 -126 -41 -128 43 -2 74 79 114 122 60z
m266 9 c40 -39 41 -88 2 -130 -35 -39 -85 -26 -107 26 -31 76 51 158 105 104z
m-84 -228 c43 -11 65 -13 78 -5 28 15 38 12 16 -4 -18 -13 -18 -14 5 -21 28
-9 42 -19 87 -64 48 -47 62 -72 78 -132 57 -215 -220 -408 -476 -333 -190 56
-285 196 -240 353 15 54 92 138 154 169 100 50 199 62 298 37z"></path>
<path class="node" id="node2" d="M1249 2229 c-8 -16 -8 -28 0 -45 18 -41 71 -25 71 21 0 44 -50 61
-71 24z"></path>
<path class="node" id="node3" d="M1500 2234 c-19 -22 -1 -68 28 -72 15 -2 25 4 33 21 22 48 -29 91
-61 51z"></path>
<path class="node" id="node4" d="M1183 1883 c-23 -9 -13 -18 20 -18 27 0 35 -6 49 -35 l18 -35 0 31
c0 48 -42 76 -87 57z"></path>
<path class="node" id="node5" d="M1557 1872 c-18 -19 -23 -77 -8 -86 4 -3 6 6 3 20 -6 34 24 67 59 62
19 -3 25 0 22 9 -8 19 -57 16 -76 -5z"></path>
<path class="node" id="node6" d="M1507 1625 c-57 -51 -149 -53 -210 -5 -14 11 -28 16 -31 12 -14 -22
80 -72 134 -72 38 0 98 24 127 52 43 40 25 52 -20 13z"></path>
<path class="node" id="node7" d="M914 2428 c-55 -37 -124 -132 -127 -175 -2 -25 5 -31 53 -55 94 -46
160 -36 229 35 l33 35 -39 -5 c-29 -4 -51 1 -81 16 l-42 21 19 39 c20 38 83
101 102 101 6 0 7 5 4 10 -3 6 -28 10 -54 10 -38 0 -59 -7 -97 -32z"></path>
<path class="node" id="node8" d="M1745 2450 c-3 -5 -2 -10 4 -10 19 0 82 -63 102 -101 l19 -39 -42
-21 c-30 -15 -52 -20 -81 -16 l-39 5 33 -35 c69 -71 136 -81 229 -35 48 23 55
31 53 54 -3 42 -73 139 -127 176 -38 25 -59 32 -97 32 -26 0 -51 -4 -54 -10z"></path>
<path class="node" id="node9" d="M1076 1405 c-47 -46 -64 -69 -60 -82 4 -13 3 -14 -3 -5 -11 14 -69
-49 -122 -133 -31 -49 -31 -49 -12 -69 25 -25 39 -19 141 58 l75 56 6 -82 c7
-86 21 -146 83 -358 21 -68 43 -164 49 -213 l12 -90 48 -1 c57 -1 54 -8 61
149 5 130 22 190 51 190 29 0 45 -58 51 -189 8 -159 5 -152 59 -150 25 1 48 3
50 6 2 2 6 35 8 75 3 39 7 75 10 80 2 4 8 31 12 58 4 28 10 52 14 55 4 3 15
32 24 65 57 195 69 248 74 318 3 42 10 77 15 77 5 0 39 -23 76 -51 92 -71 108
-78 133 -52 l20 20 -44 65 c-56 84 -134 174 -197 227 l-49 41 -45 -22 c-35
-17 -43 -25 -37 -37 17 -32 22 -100 11 -140 -29 -110 -157 -172 -263 -127 -44
18 -94 77 -107 127 -11 40 -6 108 11 140 6 12 -2 20 -37 37 -24 12 -46 22 -49
22 -2 0 -33 -29 -69 -65z m489 -714 c0 -22 -3 -37 -7 -34 -14 8 -8 73 6 73 1
0 1 -18 1 -39z"></path>
<path class="node" id="node10" d="M1290 1380 c-35 -35 -25 -65 43 -138 35 -37 67 -67 72 -67 5 0 37 30
72 67 68 73 78 103 43 138 -26 26 -72 26 -95 0 l-18 -20 -22 20 c-27 26 -69
26 -95 0z m106 -31 c4 -8 9 -8 17 0 18 18 65 13 77 -8 16 -31 13 -39 -37 -92
l-46 -50 -44 43 c-49 48 -59 69 -43 98 12 22 64 28 76 9z"></path>
<path class="node" id="node11" d="M804 1111 c-62 -38 -67 -72 -12 -75 16 -1 24 -8 26 -24 2 -12 12 -27
22 -32 16 -9 22 -4 39 36 12 26 21 50 21 54 0 4 -15 19 -33 33 -33 25 -34 25
-63 8z"></path>
<path class="node" id="node12" d="M1941 1100 l-33 -28 17 -47 c10 -25 22 -48 27 -51 13 -8 36 14 40 39
2 12 9 21 16 19 18 -3 52 16 52 30 0 12 -22 31 -60 52 -23 13 -28 11 -59 -14z"></path>
<path class="node" id="node13" d="M1229 433 c-6 -16 -11 -46 -12 -68 -2 -34 1 -40 19 -43 12 -2 28 4
37 12 19 20 25 20 43 1 9 -8 27 -15 41 -15 25 0 25 2 20 43 -3 24 -11 55 -16
70 -10 25 -15 27 -66 27 -51 0 -56 -2 -66 -27z"></path>
<path class="node" id="node14" d="M1465 452 c-14 -9 -38 -108 -30 -122 9 -15 37 -12 63 6 21 15 25 15
41 0 19 -17 56 -21 65 -8 3 5 1 24 -3 43 -5 19 -12 46 -15 62 -6 25 -10 27
-59 27 -28 0 -57 -4 -62 -8z"></path>
</g>
<g transform="translate(0.000000,300.000000) scale(0.100000,-0.100000)" fill="#A8A8A3" stroke="none">

<path class="node" id="node16" d="M1220 2265 c-31 -33 -31 -87 1 -121 35 -38 80 -31 104 17 21 39 19
72 -6 103 -27 34 -68 34 -99 1z m88 -27 c7 -7 12 -21 12 -33 0 -46 -53 -62
-71 -21 -21 45 26 87 59 54z"></path>
<path class="node" id="node17" d="M1500 2270 c-27 -27 -35 -65 -20 -101 22 -52 72 -65 107 -26 28 30
36 59 24 89 -22 58 -73 76 -111 38z m61 -41 c16 -31 -4 -71 -33 -67 -29 4 -47
50 -28 72 18 22 47 20 61 -5z"></path>
<path class="node" id="node18" d="M1300 2044 c-30 -8 -74 -24 -97 -36 -62 -31 -139 -115 -154 -169 -45
-157 50 -297 240 -353 256 -75 533 118 476 333 -16 60 -30 85 -78 132 -45 45
-59 55 -87 64 -23 7 -23 8 -5 21 22 16 12 19 -16 4 -13 -8 -35 -6 -78 5 -72
18 -129 18 -201 -1z m-48 -171 c10 -9 18 -30 18 -47 l0 -31 -18 35 c-14 29
-22 35 -49 35 -33 0 -43 9 -20 18 24 10 51 7 69 -10z m381 4 c3 -9 -3 -12 -22
-9 -35 5 -65 -28 -59 -62 3 -14 1 -23 -3 -20 -15 9 -10 67 8 86 19 21 68 24
76 5z m-83 -235 c0 -29 -97 -82 -150 -82 -54 0 -148 50 -134 72 3 4 17 -1 31
-12 61 -48 153 -46 210 5 29 25 43 31 43 17z"></path>
<path class="node" id="node19" d="M1557 723 c-9 -9 -9 -61 1 -66 4 -3 7 12 7 34 0 21 0 39 -1 39 0 0
-4 -3 -7 -7z"></path>
<path class="node" id="node20" d="M1320 1340 c-16 -29 -6 -50 43 -98 l44 -43 46 50 c50 53 53 61 37 92
-12 21 -59 26 -77 8 -8 -8 -13 -8 -17 0 -12 19 -64 13 -76 -9z"></path>
</g>
</svg>