<?xml version="1.0" encoding="iso-8859-1"?>
<!-- Generator: Adobe Illustrator 19.0.0, SVG Export Plug-In . SVG Version: 6.00 Build 0)  -->
<svg version="1.1" id="Layer_1" xmlns="http://www.w3.org/2000/svg" xmlns:xlink="http://www.w3.org/1999/xlink" x="0px" y="0px"
	 viewBox="0 0 512 512" style="enable-background:new 0 0 512 512;" xml:space="preserve">
<g>
	<g>
		<path d="M500.417,166.864l-75.389-21.278c-17.738-5.006-36.07-5.172-53.456-0.694c-4.994-9.635-12.351-17.984-21.015-24.396
			c0.05-0.515-0.14-1.035-0.14-1.564v-35.72c0-32.257-26.168-58.5-58.424-58.5c-8.788,0-15.838,7.125-15.838,15.913v65.805h-40.313
			V40.626c0-8.788-7.05-15.913-15.838-15.913c-32.257,0-58.424,26.243-58.424,58.5v35.72c0,0.528-0.19,1.049-0.14,1.564
			c-8.768,6.488-16.083,14.963-21.084,24.745c-16.962-4.339-35.303-4.41-53.332,0.678l-75.417,21.278
			c-8.458,2.387-13.394,11.178-11.007,19.637l0.362,1.307c12.784,45.295,54.156,74.956,99.059,74.956
			c9.228,0,18.802-1.253,28.109-3.88l4.806-1.301v94.734c0,5.072,0.124,10.071,0.75,14.976
			c-9.378,12.505-15.041,28.013-15.041,44.811c0,41.28,33.485,74.848,74.764,74.848h125.178c41.28,0,74.863-33.568,74.863-74.848
			c0-16.799-5.762-32.313-15.14-44.819c0.626-4.905,0.75-9.896,0.75-14.968v-95.068l4.807,1.301
			c9.28,2.619,18.818,3.916,28.202,3.915c17.366,0,34.586-4.441,50.154-13.156c23.982-13.424,41.327-35.385,48.792-61.837
			l0.381-1.307C513.784,178.043,508.874,169.251,500.417,166.864z M132.935,224.849l-13.452,3.585h-0.197v-0.001
			c-32.918,9.548-67.07-6.225-82.305-35.412l58.633-16.509c12.508-3.53,25.391-3.439,37.152-0.402
			c-0.005,0.373,0.17,0.763,0.17,1.137V224.849z M307.982,61.818c6.365,4.866,10.609,12.645,10.609,21.394v20.037h-10.609V61.818z
			 M193.407,83.212c0-8.749,4.244-16.527,10.609-21.394v41.431h-10.609V83.212z M164.763,282.539V177.245h0
			c0-21.362,16.983-38.987,38.344-38.987H308.89c14.047,0,26.371,7.426,33.165,19.096h-86.057c-8.788,0-15.913,7.012-15.913,15.802
			v55.873c0,35.293,28.713,64.119,64.006,64.119h43.143v50.31c-8.487-3.776-18.353-5.753-28.647-5.753h-84.851
			c-7.248-31.826-35.539-55.166-69.261-55.166H164.763z M347.234,189.18v72.14h-43.143c-17.744,0-32.18-14.548-32.18-32.292V189.18
			H347.234z M164.763,314.375c15.857,0.115,29.501,9.621,35.582,23.329h-6.935c-10.294,0-20.16,1.979-28.647,5.753V314.375z
			 M318.587,455.461H193.41c-23.731,0-43.037-19.235-43.037-42.966s19.306-42.966,43.037-42.966h125.178
			c23.731,0,43.037,19.235,43.037,42.966C361.624,436.226,342.318,455.461,318.587,455.461z M446.728,221.873
			c-16.564,9.272-35.947,11.539-54.215,6.382l-13.452-3.741v-47.27c0-0.499,0.171-0.991,0.16-1.487
			c12.021-3.104,24.796-3.004,37.062,0.457l58.697,16.553C468.655,204.939,458.975,215.018,446.728,221.873z"/>
	</g>
</g>
<g>
	<g>
		<circle cx="208.654" cy="222.795" r="19.367"/>
	</g>
</g>
<g>
	<g>
		<circle cx="303.348" cy="222.795" r="19.367"/>
	</g>
</g>
<g>
	<g>
		<path d="M208.259,388.626c-8.788,0-15.913,7.125-15.913,15.913v19.096c0,8.788,7.125,15.913,15.913,15.913
			s15.913-7.125,15.913-15.913v-19.096C224.172,395.75,217.047,388.626,208.259,388.626z"/>
	</g>
</g>
<g>
	<g>
		<path d="M303.738,388.626c-8.788,0-15.913,7.125-15.913,15.913v19.096c0,8.788,7.124,15.913,15.913,15.913
			c8.788,0,15.913-7.125,15.913-15.913v-19.096C319.651,395.75,312.527,388.626,303.738,388.626z"/>
	</g>
</g>
<g>
</g>
<g>
</g>
<g>
</g>
<g>
</g>
<g>
</g>
<g>
</g>
<g>
</g>
<g>
</g>
<g>
</g>
<g>
</g>
<g>
</g>
<g>
</g>
<g>
</g>
<g>
</g>
<g>
</g>
</svg>
