<?xml version="1.0" encoding="iso-8859-1"?>
<!-- Generator: Adobe Illustrator 18.1.1, SVG Export Plug-In . SVG Version: 6.00 Build 0)  -->
<svg xmlns="http://www.w3.org/2000/svg" xmlns:xlink="http://www.w3.org/1999/xlink" version="1.1" id="Capa_1" x="0px" y="0px" viewBox="0 0 288.434 288.434" style="enable-background:new 0 0 288.434 288.434;" xml:space="preserve" width="512px" height="512px">
<g>
	<path d="M42.857,288.434c-20.696,0-21.354-20.668-21.354-20.668V64.023c0-12.249,5.733-17.552,11.346-19.809   c5.575-2.241,15.637-1.186,21.457-2.676c10.296-2.627,9.883-8.855,9.883-8.855V10.002C64.189,0.658,74.855,0,74.855,0h21.332   c11.351,0,10.693,9.344,10.693,9.344v23.339c0,9.317,21.599,10.111,21.599,10.111l21.332-0.054   c6.005-0.016,15.828-0.071,21.588-1.784c5.129-1.528,10.176-4.368,10.176-9.622V10.002C181.575,0,192.241,0,192.241,0h20.005   c3.699,0,6.277,1.284,8.066,2.953c3.552,3.323,3.949,12.564,3.949,18.547v10.835c0,8.686,21.337,10.351,21.337,10.351   c21.332,0,21.332,20.668,21.332,20.668v205.069c0,18.689-22.681,20.01-22.681,20.01H42.857z M96.187,20.668   c0-5.874-4.759-10.002-10.666-10.002h-0.664c-5.901,0-10.002,4.134-10.002,10.002v32.683c0,5.901,4.101,10.671,10.002,10.671h0.664   c5.901,0,10.666-4.765,10.666-10.671V20.668z M85.521,74.689h-0.664c-5.901,0-10.345,4.792-10.345,10.666   c0,5.896,4.786,10.693,10.693,10.693h0.664c5.88,0,10.666-4.792,10.666-10.693C96.535,79.481,91.428,74.689,85.521,74.689z    M213.568,21.332c0-5.88-4.759-10.666-10.666-10.666h-0.664c-5.901,0-10.002,4.786-10.002,10.666v32.689   c0,5.896,4.759,10.666,10.666,10.666s10.666-4.765,10.666-10.666C213.568,54.021,213.568,21.332,213.568,21.332z M202.902,74.689   c-5.901,0-10.666,4.792-10.666,10.666c0,5.896,4.759,10.693,10.666,10.693s10.666-4.792,10.666-10.693   C213.568,79.481,208.808,74.689,202.902,74.689z M245.386,127.383c0-11.776-9.556-20.353-21.332-20.353H64.407   c-11.803,0-21.359,8.577-21.359,20.353v118.18c0,11.776,9.556,21.332,21.359,21.332h159.647c11.776,0,21.332-9.556,21.332-21.332   V127.383z M187.819,207.364c-1.414,4.601-2.535,10.541-3.356,16.785c-0.783,5.956-5.994,10.818-11.999,10.818h-1.507   c-6.01,0-10.269-4.835-9.208-10.748c1.757-9.801,4.079-18.917,6.984-25.754c2.801-6.647,6.799-12.765,11.966-19.586   c3.628-4.786,1.855-8.55-4.155-8.55h-16.41c-6.005,0-10.878-4.786-10.878-10.693c0-5.901,4.873-10.693,10.878-10.693h43.061   c6.005,0,10.878,4.498,10.878,10.046c0,5.548-3.742,13.163-8.436,16.91c-3.693,2.948-7.19,5.999-9.426,9.513   C191.393,192.994,190.598,198.074,187.819,207.364z M100.446,180.751c-3.28,1.806-6.347,3.274-6.347,3.274s-1.392,0.789-4.4,2.556   c-2.426,1.425-4.389-1.686-4.389-6.967c0-5.281,3.291-11.335,7.169-13.826c2.502-1.605,4.079-2.856,6.679-4.982   c2.203-1.789,4.161-3.383,5.885-5.183c2.991-3.133,8.686-6.434,13.924-6.434c5.243,0,9.491,4.873,9.491,10.878v64.023   c0,6.005-4.873,10.878-10.878,10.878h-0.185c-6.005,0-10.878-4.873-10.878-10.878v-36.23   C106.51,181.855,103.9,178.847,100.446,180.751z" fill="#0c2b1e"/>
</g>
<g>
</g>
<g>
</g>
<g>
</g>
<g>
</g>
<g>
</g>
<g>
</g>
<g>
</g>
<g>
</g>
<g>
</g>
<g>
</g>
<g>
</g>
<g>
</g>
<g>
</g>
<g>
</g>
<g>
</g>
</svg>
