<?xml version="1.0" encoding="utf-8"?>
<!-- Generator: Adobe Illustrator 17.1.0, SVG Export Plug-In . SVG Version: 6.00 Build 0)  -->
<!DOCTYPE svg PUBLIC "-//W3C//DTD SVG 1.1//EN" "http://www.w3.org/Graphics/SVG/1.1/DTD/svg11.dtd">
<svg version="1.1" id="Layer_1" xmlns="http://www.w3.org/2000/svg" xmlns:xlink="http://www.w3.org/1999/xlink" x="0px" y="0px"
	 viewBox="0 3.6 21 16.4" enable-background="new 0 3.6 21 16.4" xml:space="preserve">
<g id="fwGTWH.tif_16_">
	<g>
		<path fill="#454545" d="M3.7,4.1c0.2,0.1,0.4,0.1,0.6,0.2c1.5,0.5,3.1,1,4.6,1.5c0,0,0,0,0,0c-0.1,0-0.1,0-0.1,0.1
			C8.4,6,8,6.1,7.7,6.2c0,0-0.1,0-0.2,0C6.3,5.9,5.1,5.5,3.9,5.1c-0.1,0-0.1,0-0.2,0C2.6,6,1.9,7.2,1.7,8.6c-0.1,0.5-0.1,1,0,1.5
			c0,0.2,0.1,0.4,0.3,0.6C2,10.8,2.1,10.9,2.1,11c-0.2,0.2-0.4,0.4-0.6,0.7c-0.4-0.4-0.7-0.9-0.8-1.4c-0.1-0.3-0.1-0.7,0-1.1
			c0-0.7,0.2-1.4,0.5-2C1.7,5.9,2.5,4.9,3.7,4.1C3.6,4.1,3.7,4.1,3.7,4.1C3.7,4.1,3.7,4.1,3.7,4.1z"/>
		<path fill="#454545" d="M17.3,13.8c-0.3,0-0.5,0-0.7-0.1c0,0-0.1,0-0.1-0.1c-1.4-1.2-2.7-2.5-4.1-3.7c-0.4-0.4-0.9-0.8-1.3-1.2
			c0,0-0.1-0.1-0.2,0c-0.7,0.2-1.3,0.4-2,0.5c-0.7,0.1-1.4,0-2-0.4C6.6,8.8,6.4,8.5,6.2,8.1C6,7.8,6.2,7.5,6.5,7.4
			C7.7,7,8.8,6.6,9.9,6.2C10.3,6,10.7,6,11,6c0.1,0,0.2,0.1,0.4,0.1c1.1,0.4,2.2,0.8,3.3,1.2c0.1,0,0.1,0,0.2,0
			c0.8-0.2,1.6-0.5,2.5-0.7c0.1,0,0.1,0,0.2,0.1c0.4,0.5,0.7,1.1,1,1.7c0.7,1.3,1.2,2.7,1.8,4c0,0.1,0,0.1,0,0.1
			c-0.6,0.6-1.2,0.9-2,1.1C17.9,13.8,17.6,13.8,17.3,13.8z"/>
		<path fill="#454545" d="M4.2,12.3c0.3-0.2,0.5-0.2,0.8-0.1c0.2,0.1,0.4,0.2,0.5,0.3c0.3,0.3,0.4,0.8,0.1,1.3
			c0.5-0.1,0.9,0.1,1.2,0.5c0.3,0.5,0.2,0.9-0.2,1.3c0.1,0,0.3,0,0.4,0c0.4,0.1,0.7,0.3,0.8,0.7c0.1,0.4,0.1,0.7-0.2,1
			C7.4,17.6,7.2,17.8,7,18c-0.1,0.1-0.2,0.3-0.4,0.4c-0.4,0.3-0.9,0.3-1.3-0.1c-0.7-0.8-1.4-1.6-2.1-2.4c-0.5-0.6-1-1.3-1.4-1.9
			c-0.2-0.2-0.3-0.5-0.4-0.7c-0.1-0.3,0-0.5,0.2-0.8c0.2-0.2,0.5-0.5,0.7-0.7c0.5-0.5,1.3-0.3,1.7,0.3C4.1,12.1,4.1,12.2,4.2,12.3z"
			/>
		<path fill="#454545" d="M16.2,14.5c0.3,0,0.6,0.1,1,0.1c0,0.2,0.1,0.3,0,0.5c-0.1,0.9-0.6,1.4-1.4,1.7c0,0-0.1,0.1-0.1,0.1
			c-0.2,0.8-0.8,1.3-1.6,1.4c-0.1,0-0.2,0-0.3,0.1c-0.1,0-0.1,0.2-0.1,0.2c-0.6,0.9-1.7,1.2-2.6,0.6c-0.1,0-0.1,0-0.1,0
			c-0.4,0.4-0.8,0.6-1.4,0.6c-0.5,0-0.9-0.2-1.3-0.5c-0.3-0.3-0.5-0.5-0.8-0.8c0.2-0.2,0.4-0.4,0.6-0.7c0.1,0.1,0.2,0.2,0.3,0.3
			c0.2,0.2,0.4,0.4,0.6,0.6c0.5,0.5,1.3,0.3,1.6-0.2c-0.3-0.3-0.6-0.6-0.8-0.8c-0.4-0.4-0.7-0.7-1.1-1.1c-0.2-0.2-0.2-0.4,0-0.5
			c0.2-0.2,0.4-0.1,0.5,0c0.8,0.8,1.6,1.6,2.4,2.4c0.2,0.2,0.5,0.3,0.8,0.2c0.4-0.1,0.6-0.3,0.8-0.7c0-0.1,0-0.1,0-0.2
			c-1.1-1.1-2.3-2.3-3.4-3.4c-0.1-0.1-0.2-0.2-0.1-0.4c0.1-0.2,0.3-0.4,0.5-0.2c0,0,0.1,0.1,0.1,0.1c1.2,1.2,2.3,2.3,3.5,3.5
			c0.1,0.1,0.2,0.1,0.4,0.1c0.5-0.1,0.7-0.4,0.9-0.8c0-0.1,0-0.1-0.1-0.2c-1.3-1.4-2.6-2.7-3.9-4c-0.1-0.1-0.2-0.3-0.1-0.5
			c0.1-0.2,0.4-0.2,0.6-0.1c0.8,0.8,1.6,1.6,2.4,2.4c0.5,0.5,1,1,1.5,1.5c0.1,0.1,0.1,0.1,0.2,0.1C16.1,15.8,16.5,15.1,16.2,14.5
			C16.2,14.5,16.2,14.5,16.2,14.5z"/>
	</g>
</g>
</svg>